<mxfile host="Electron" modified="2024-02-16T09:01:52.454Z" agent="Mozilla/5.0 (Windows NT 10.0; Win64; x64) AppleWebKit/537.36 (KHTML, like Gecko) draw.io/23.0.2 Chrome/120.0.6099.109 Electron/28.1.0 Safari/537.36" etag="xCv3F1OhMD0q66nipNy4" version="23.0.2" type="device">
  <diagram name="Seite-1" id="b0kJ9ZFDzkwzSMW23gj2">
    <mxGraphModel dx="-1697" dy="-557" grid="1" gridSize="10" guides="1" tooltips="1" connect="1" arrows="1" fold="1" page="0" pageScale="1" pageWidth="827" pageHeight="1169" math="0" shadow="0">
      <root>
        <mxCell id="0" />
        <mxCell id="1" parent="0" />
        <mxCell id="ihR8Fmivdvn-rFsdOKCi-101" value="Player-Scene" style="shape=folder;fontStyle=1;spacingTop=10;tabWidth=40;tabHeight=14;tabPosition=left;html=1;whiteSpace=wrap;verticalAlign=top;" parent="1" vertex="1">
          <mxGeometry x="3510" y="1580" width="1260" height="730" as="geometry" />
        </mxCell>
        <mxCell id="ihR8Fmivdvn-rFsdOKCi-1" value="Class" style="swimlane;fontStyle=1;align=center;verticalAlign=top;childLayout=stackLayout;horizontal=1;startSize=26;horizontalStack=0;resizeParent=1;resizeParentMax=0;resizeLast=0;collapsible=1;marginBottom=0;whiteSpace=wrap;html=1;" parent="1" vertex="1">
          <mxGeometry x="4870" y="1710" width="280" height="120" as="geometry">
            <mxRectangle x="4430" y="1700" width="70" height="30" as="alternateBounds" />
          </mxGeometry>
        </mxCell>
        <mxCell id="ihR8Fmivdvn-rFsdOKCi-2" value="Attribute" style="text;strokeColor=none;fillColor=none;align=left;verticalAlign=top;spacingLeft=4;spacingRight=4;overflow=hidden;rotatable=0;points=[[0,0.5],[1,0.5]];portConstraint=eastwest;whiteSpace=wrap;html=1;" parent="ihR8Fmivdvn-rFsdOKCi-1" vertex="1">
          <mxGeometry y="26" width="280" height="26" as="geometry" />
        </mxCell>
        <mxCell id="ihR8Fmivdvn-rFsdOKCi-3" value="" style="line;strokeWidth=1;fillColor=none;align=left;verticalAlign=middle;spacingTop=-1;spacingLeft=3;spacingRight=3;rotatable=0;labelPosition=right;points=[];portConstraint=eastwest;strokeColor=inherit;" parent="ihR8Fmivdvn-rFsdOKCi-1" vertex="1">
          <mxGeometry y="52" width="280" height="8" as="geometry" />
        </mxCell>
        <mxCell id="ihR8Fmivdvn-rFsdOKCi-4" value="Methoden" style="text;strokeColor=none;fillColor=none;align=left;verticalAlign=top;spacingLeft=4;spacingRight=4;overflow=hidden;rotatable=0;points=[[0,0.5],[1,0.5]];portConstraint=eastwest;whiteSpace=wrap;html=1;" parent="ihR8Fmivdvn-rFsdOKCi-1" vertex="1">
          <mxGeometry y="60" width="280" height="26" as="geometry" />
        </mxCell>
        <mxCell id="ihR8Fmivdvn-rFsdOKCi-7" value="" style="line;strokeWidth=1;fillColor=none;align=left;verticalAlign=middle;spacingTop=-1;spacingLeft=3;spacingRight=3;rotatable=0;labelPosition=right;points=[];portConstraint=eastwest;strokeColor=inherit;" parent="ihR8Fmivdvn-rFsdOKCi-1" vertex="1">
          <mxGeometry y="86" width="280" height="8" as="geometry" />
        </mxCell>
        <mxCell id="ihR8Fmivdvn-rFsdOKCi-8" value="Beschreibung" style="text;strokeColor=none;fillColor=none;align=left;verticalAlign=top;spacingLeft=4;spacingRight=4;overflow=hidden;rotatable=0;points=[[0,0.5],[1,0.5]];portConstraint=eastwest;whiteSpace=wrap;html=1;" parent="ihR8Fmivdvn-rFsdOKCi-1" vertex="1">
          <mxGeometry y="94" width="280" height="26" as="geometry" />
        </mxCell>
        <mxCell id="ihR8Fmivdvn-rFsdOKCi-9" value="PlayerCharacter" style="swimlane;fontStyle=1;align=center;verticalAlign=top;childLayout=stackLayout;horizontal=1;startSize=26;horizontalStack=0;resizeParent=1;resizeParentMax=0;resizeLast=0;collapsible=1;marginBottom=0;whiteSpace=wrap;html=1;fillColor=#0050ef;fontColor=#ffffff;strokeColor=#001DBC;" parent="1" vertex="1">
          <mxGeometry x="4000" y="1640" width="280" height="120" as="geometry">
            <mxRectangle x="4430" y="1700" width="70" height="30" as="alternateBounds" />
          </mxGeometry>
        </mxCell>
        <mxCell id="ihR8Fmivdvn-rFsdOKCi-10" value="Attribute" style="text;strokeColor=none;fillColor=none;align=left;verticalAlign=top;spacingLeft=4;spacingRight=4;overflow=hidden;rotatable=0;points=[[0,0.5],[1,0.5]];portConstraint=eastwest;whiteSpace=wrap;html=1;" parent="ihR8Fmivdvn-rFsdOKCi-9" vertex="1">
          <mxGeometry y="26" width="280" height="26" as="geometry" />
        </mxCell>
        <mxCell id="ihR8Fmivdvn-rFsdOKCi-11" value="" style="line;strokeWidth=1;fillColor=none;align=left;verticalAlign=middle;spacingTop=-1;spacingLeft=3;spacingRight=3;rotatable=0;labelPosition=right;points=[];portConstraint=eastwest;strokeColor=inherit;" parent="ihR8Fmivdvn-rFsdOKCi-9" vertex="1">
          <mxGeometry y="52" width="280" height="8" as="geometry" />
        </mxCell>
        <mxCell id="ihR8Fmivdvn-rFsdOKCi-12" value="Methoden" style="text;strokeColor=none;fillColor=none;align=left;verticalAlign=top;spacingLeft=4;spacingRight=4;overflow=hidden;rotatable=0;points=[[0,0.5],[1,0.5]];portConstraint=eastwest;whiteSpace=wrap;html=1;" parent="ihR8Fmivdvn-rFsdOKCi-9" vertex="1">
          <mxGeometry y="60" width="280" height="26" as="geometry" />
        </mxCell>
        <mxCell id="ihR8Fmivdvn-rFsdOKCi-13" value="" style="line;strokeWidth=1;fillColor=none;align=left;verticalAlign=middle;spacingTop=-1;spacingLeft=3;spacingRight=3;rotatable=0;labelPosition=right;points=[];portConstraint=eastwest;strokeColor=inherit;" parent="ihR8Fmivdvn-rFsdOKCi-9" vertex="1">
          <mxGeometry y="86" width="280" height="8" as="geometry" />
        </mxCell>
        <mxCell id="ihR8Fmivdvn-rFsdOKCi-14" value="Steuerbarer Charakter des Spielers" style="text;strokeColor=none;fillColor=none;align=left;verticalAlign=top;spacingLeft=4;spacingRight=4;overflow=hidden;rotatable=0;points=[[0,0.5],[1,0.5]];portConstraint=eastwest;whiteSpace=wrap;html=1;" parent="ihR8Fmivdvn-rFsdOKCi-9" vertex="1">
          <mxGeometry y="94" width="280" height="26" as="geometry" />
        </mxCell>
        <mxCell id="ihR8Fmivdvn-rFsdOKCi-92" style="edgeStyle=orthogonalEdgeStyle;rounded=0;orthogonalLoop=1;jettySize=auto;html=1;exitX=0.5;exitY=1;exitDx=0;exitDy=0;entryX=0.5;entryY=0;entryDx=0;entryDy=0;startArrow=classic;startFill=1;" parent="1" source="ihR8Fmivdvn-rFsdOKCi-15" target="ihR8Fmivdvn-rFsdOKCi-65" edge="1">
          <mxGeometry relative="1" as="geometry">
            <mxPoint x="4040" y="2140" as="targetPoint" />
          </mxGeometry>
        </mxCell>
        <mxCell id="ihR8Fmivdvn-rFsdOKCi-93" style="edgeStyle=orthogonalEdgeStyle;rounded=0;orthogonalLoop=1;jettySize=auto;html=1;exitX=0.5;exitY=1;exitDx=0;exitDy=0;entryX=0.5;entryY=0;entryDx=0;entryDy=0;" parent="1" source="ihR8Fmivdvn-rFsdOKCi-15" target="ihR8Fmivdvn-rFsdOKCi-71" edge="1">
          <mxGeometry relative="1" as="geometry" />
        </mxCell>
        <mxCell id="ihR8Fmivdvn-rFsdOKCi-94" style="edgeStyle=orthogonalEdgeStyle;rounded=0;orthogonalLoop=1;jettySize=auto;html=1;exitX=0.5;exitY=1;exitDx=0;exitDy=0;entryX=0.5;entryY=0;entryDx=0;entryDy=0;" parent="1" source="ihR8Fmivdvn-rFsdOKCi-15" target="ihR8Fmivdvn-rFsdOKCi-77" edge="1">
          <mxGeometry relative="1" as="geometry" />
        </mxCell>
        <mxCell id="ihR8Fmivdvn-rFsdOKCi-95" style="edgeStyle=orthogonalEdgeStyle;rounded=0;orthogonalLoop=1;jettySize=auto;html=1;exitX=0.5;exitY=1;exitDx=0;exitDy=0;entryX=0.5;entryY=0;entryDx=0;entryDy=0;" parent="1" source="ihR8Fmivdvn-rFsdOKCi-15" target="ihR8Fmivdvn-rFsdOKCi-27" edge="1">
          <mxGeometry relative="1" as="geometry">
            <mxPoint x="3710" y="2150" as="targetPoint" />
          </mxGeometry>
        </mxCell>
        <mxCell id="ihR8Fmivdvn-rFsdOKCi-97" value="Wechsel des Status" style="edgeLabel;html=1;align=center;verticalAlign=middle;resizable=0;points=[];" parent="ihR8Fmivdvn-rFsdOKCi-95" vertex="1" connectable="0">
          <mxGeometry x="-0.8882" relative="1" as="geometry">
            <mxPoint x="16" y="10" as="offset" />
          </mxGeometry>
        </mxCell>
        <mxCell id="ihR8Fmivdvn-rFsdOKCi-15" value="StateMachine" style="swimlane;fontStyle=1;align=center;verticalAlign=top;childLayout=stackLayout;horizontal=1;startSize=26;horizontalStack=0;resizeParent=1;resizeParentMax=0;resizeLast=0;collapsible=1;marginBottom=0;whiteSpace=wrap;html=1;fillColor=#008a00;fontColor=#ffffff;strokeColor=#005700;" parent="1" vertex="1">
          <mxGeometry x="3977.5" y="1810" width="325" height="302" as="geometry">
            <mxRectangle x="4430" y="1700" width="70" height="30" as="alternateBounds" />
          </mxGeometry>
        </mxCell>
        <mxCell id="ihR8Fmivdvn-rFsdOKCi-16" value="+ Transitioned(string): Signal" style="text;strokeColor=none;fillColor=none;align=left;verticalAlign=top;spacingLeft=4;spacingRight=4;overflow=hidden;rotatable=0;points=[[0,0.5],[1,0.5]];portConstraint=eastwest;whiteSpace=wrap;html=1;" parent="ihR8Fmivdvn-rFsdOKCi-15" vertex="1">
          <mxGeometry y="26" width="325" height="26" as="geometry" />
        </mxCell>
        <mxCell id="2RVkLAHY1WiUdaPVSaJh-1" value="- _initialState: NodePath {Export}" style="text;strokeColor=none;fillColor=none;align=left;verticalAlign=top;spacingLeft=4;spacingRight=4;overflow=hidden;rotatable=0;points=[[0,0.5],[1,0.5]];portConstraint=eastwest;whiteSpace=wrap;html=1;" vertex="1" parent="ihR8Fmivdvn-rFsdOKCi-15">
          <mxGeometry y="52" width="325" height="26" as="geometry" />
        </mxCell>
        <mxCell id="2RVkLAHY1WiUdaPVSaJh-2" value="- _state: State = GetNode&amp;lt;State&amp;gt;(_initialState) {OnReady}" style="text;strokeColor=none;fillColor=none;align=left;verticalAlign=top;spacingLeft=4;spacingRight=4;overflow=hidden;rotatable=0;points=[[0,0.5],[1,0.5]];portConstraint=eastwest;whiteSpace=wrap;html=1;" vertex="1" parent="ihR8Fmivdvn-rFsdOKCi-15">
          <mxGeometry y="78" width="325" height="26" as="geometry" />
        </mxCell>
        <mxCell id="ihR8Fmivdvn-rFsdOKCi-17" value="" style="line;strokeWidth=1;fillColor=none;align=left;verticalAlign=middle;spacingTop=-1;spacingLeft=3;spacingRight=3;rotatable=0;labelPosition=right;points=[];portConstraint=eastwest;strokeColor=inherit;" parent="ihR8Fmivdvn-rFsdOKCi-15" vertex="1">
          <mxGeometry y="104" width="325" height="8" as="geometry" />
        </mxCell>
        <mxCell id="ihR8Fmivdvn-rFsdOKCi-18" value="+ _Ready(): void" style="text;strokeColor=none;fillColor=none;align=left;verticalAlign=top;spacingLeft=4;spacingRight=4;overflow=hidden;rotatable=0;points=[[0,0.5],[1,0.5]];portConstraint=eastwest;whiteSpace=wrap;html=1;" parent="ihR8Fmivdvn-rFsdOKCi-15" vertex="1">
          <mxGeometry y="112" width="325" height="26" as="geometry" />
        </mxCell>
        <mxCell id="2RVkLAHY1WiUdaPVSaJh-3" value="+ _UnhandledInput(InputEvent): void" style="text;strokeColor=none;fillColor=none;align=left;verticalAlign=top;spacingLeft=4;spacingRight=4;overflow=hidden;rotatable=0;points=[[0,0.5],[1,0.5]];portConstraint=eastwest;whiteSpace=wrap;html=1;" vertex="1" parent="ihR8Fmivdvn-rFsdOKCi-15">
          <mxGeometry y="138" width="325" height="26" as="geometry" />
        </mxCell>
        <mxCell id="2RVkLAHY1WiUdaPVSaJh-5" value="+ _Process(float): void" style="text;strokeColor=none;fillColor=none;align=left;verticalAlign=top;spacingLeft=4;spacingRight=4;overflow=hidden;rotatable=0;points=[[0,0.5],[1,0.5]];portConstraint=eastwest;whiteSpace=wrap;html=1;" vertex="1" parent="ihR8Fmivdvn-rFsdOKCi-15">
          <mxGeometry y="164" width="325" height="26" as="geometry" />
        </mxCell>
        <mxCell id="2RVkLAHY1WiUdaPVSaJh-4" value="+ _PhysicProcess(float): void" style="text;strokeColor=none;fillColor=none;align=left;verticalAlign=top;spacingLeft=4;spacingRight=4;overflow=hidden;rotatable=0;points=[[0,0.5],[1,0.5]];portConstraint=eastwest;whiteSpace=wrap;html=1;" vertex="1" parent="ihR8Fmivdvn-rFsdOKCi-15">
          <mxGeometry y="190" width="325" height="26" as="geometry" />
        </mxCell>
        <mxCell id="2RVkLAHY1WiUdaPVSaJh-6" value="+ TransitionTo(string, Dictionary): void" style="text;strokeColor=none;fillColor=none;align=left;verticalAlign=top;spacingLeft=4;spacingRight=4;overflow=hidden;rotatable=0;points=[[0,0.5],[1,0.5]];portConstraint=eastwest;whiteSpace=wrap;html=1;" vertex="1" parent="ihR8Fmivdvn-rFsdOKCi-15">
          <mxGeometry y="216" width="325" height="26" as="geometry" />
        </mxCell>
        <mxCell id="ihR8Fmivdvn-rFsdOKCi-19" value="" style="line;strokeWidth=1;fillColor=none;align=left;verticalAlign=middle;spacingTop=-1;spacingLeft=3;spacingRight=3;rotatable=0;labelPosition=right;points=[];portConstraint=eastwest;strokeColor=inherit;" parent="ihR8Fmivdvn-rFsdOKCi-15" vertex="1">
          <mxGeometry y="242" width="325" height="8" as="geometry" />
        </mxCell>
        <mxCell id="ihR8Fmivdvn-rFsdOKCi-20" value="Steuert den Wechsel des Status" style="text;strokeColor=none;fillColor=none;align=left;verticalAlign=top;spacingLeft=4;spacingRight=4;overflow=hidden;rotatable=0;points=[[0,0.5],[1,0.5]];portConstraint=eastwest;whiteSpace=wrap;html=1;" parent="ihR8Fmivdvn-rFsdOKCi-15" vertex="1">
          <mxGeometry y="250" width="325" height="26" as="geometry" />
        </mxCell>
        <mxCell id="ihR8Fmivdvn-rFsdOKCi-102" value="Leitet Godot-Callbacks an aktiven Status weiter" style="text;strokeColor=none;fillColor=none;align=left;verticalAlign=top;spacingLeft=4;spacingRight=4;overflow=hidden;rotatable=0;points=[[0,0.5],[1,0.5]];portConstraint=eastwest;whiteSpace=wrap;html=1;" parent="ihR8Fmivdvn-rFsdOKCi-15" vertex="1">
          <mxGeometry y="276" width="325" height="26" as="geometry" />
        </mxCell>
        <mxCell id="ihR8Fmivdvn-rFsdOKCi-59" style="edgeStyle=orthogonalEdgeStyle;rounded=0;orthogonalLoop=1;jettySize=auto;html=1;exitX=0.5;exitY=1;exitDx=0;exitDy=0;entryX=0.5;entryY=0;entryDx=0;entryDy=0;endArrow=none;endFill=0;startArrow=block;startFill=0;startSize=16;" parent="1" source="ihR8Fmivdvn-rFsdOKCi-21" target="ihR8Fmivdvn-rFsdOKCi-51" edge="1">
          <mxGeometry relative="1" as="geometry" />
        </mxCell>
        <mxCell id="ihR8Fmivdvn-rFsdOKCi-60" value="Extends" style="edgeLabel;html=1;align=center;verticalAlign=middle;resizable=0;points=[];" parent="ihR8Fmivdvn-rFsdOKCi-59" vertex="1" connectable="0">
          <mxGeometry x="0.2099" relative="1" as="geometry">
            <mxPoint as="offset" />
          </mxGeometry>
        </mxCell>
        <mxCell id="ihR8Fmivdvn-rFsdOKCi-21" value="State" style="swimlane;fontStyle=1;align=center;verticalAlign=top;childLayout=stackLayout;horizontal=1;startSize=26;horizontalStack=0;resizeParent=1;resizeParentMax=0;resizeLast=0;collapsible=1;marginBottom=0;whiteSpace=wrap;html=1;fillColor=#60a917;fontColor=#ffffff;strokeColor=#2D7600;" parent="1" vertex="1">
          <mxGeometry x="3010" y="1640" width="340" height="250" as="geometry">
            <mxRectangle x="4430" y="1700" width="70" height="30" as="alternateBounds" />
          </mxGeometry>
        </mxCell>
        <mxCell id="ihR8Fmivdvn-rFsdOKCi-22" value="- _stateMachine: StateMachine = null" style="text;strokeColor=none;fillColor=none;align=left;verticalAlign=top;spacingLeft=4;spacingRight=4;overflow=hidden;rotatable=0;points=[[0,0.5],[1,0.5]];portConstraint=eastwest;whiteSpace=wrap;html=1;" parent="ihR8Fmivdvn-rFsdOKCi-21" vertex="1">
          <mxGeometry y="26" width="340" height="26" as="geometry" />
        </mxCell>
        <mxCell id="2RVkLAHY1WiUdaPVSaJh-13" value="+ CurrentStateMachine: StateMachine {write-only property}" style="text;strokeColor=none;fillColor=none;align=left;verticalAlign=top;spacingLeft=4;spacingRight=4;overflow=hidden;rotatable=0;points=[[0,0.5],[1,0.5]];portConstraint=eastwest;whiteSpace=wrap;html=1;" vertex="1" parent="ihR8Fmivdvn-rFsdOKCi-21">
          <mxGeometry y="52" width="340" height="26" as="geometry" />
        </mxCell>
        <mxCell id="ihR8Fmivdvn-rFsdOKCi-23" value="" style="line;strokeWidth=1;fillColor=none;align=left;verticalAlign=middle;spacingTop=-1;spacingLeft=3;spacingRight=3;rotatable=0;labelPosition=right;points=[];portConstraint=eastwest;strokeColor=inherit;" parent="ihR8Fmivdvn-rFsdOKCi-21" vertex="1">
          <mxGeometry y="78" width="340" height="8" as="geometry" />
        </mxCell>
        <mxCell id="ihR8Fmivdvn-rFsdOKCi-24" value="+ HandleInput(InputEvent): void {virtual}" style="text;strokeColor=none;fillColor=none;align=left;verticalAlign=top;spacingLeft=4;spacingRight=4;overflow=hidden;rotatable=0;points=[[0,0.5],[1,0.5]];portConstraint=eastwest;whiteSpace=wrap;html=1;" parent="ihR8Fmivdvn-rFsdOKCi-21" vertex="1">
          <mxGeometry y="86" width="340" height="26" as="geometry" />
        </mxCell>
        <mxCell id="2RVkLAHY1WiUdaPVSaJh-8" value="+ Update(float): void {virtual}" style="text;strokeColor=none;fillColor=none;align=left;verticalAlign=top;spacingLeft=4;spacingRight=4;overflow=hidden;rotatable=0;points=[[0,0.5],[1,0.5]];portConstraint=eastwest;whiteSpace=wrap;html=1;" vertex="1" parent="ihR8Fmivdvn-rFsdOKCi-21">
          <mxGeometry y="112" width="340" height="26" as="geometry" />
        </mxCell>
        <mxCell id="2RVkLAHY1WiUdaPVSaJh-7" value="+ PhysicsUpdate(float): void {virtual}" style="text;strokeColor=none;fillColor=none;align=left;verticalAlign=top;spacingLeft=4;spacingRight=4;overflow=hidden;rotatable=0;points=[[0,0.5],[1,0.5]];portConstraint=eastwest;whiteSpace=wrap;html=1;" vertex="1" parent="ihR8Fmivdvn-rFsdOKCi-21">
          <mxGeometry y="138" width="340" height="26" as="geometry" />
        </mxCell>
        <mxCell id="2RVkLAHY1WiUdaPVSaJh-9" value="+ Enter(Dictionary): void {virtual}" style="text;strokeColor=none;fillColor=none;align=left;verticalAlign=top;spacingLeft=4;spacingRight=4;overflow=hidden;rotatable=0;points=[[0,0.5],[1,0.5]];portConstraint=eastwest;whiteSpace=wrap;html=1;" vertex="1" parent="ihR8Fmivdvn-rFsdOKCi-21">
          <mxGeometry y="164" width="340" height="26" as="geometry" />
        </mxCell>
        <mxCell id="2RVkLAHY1WiUdaPVSaJh-10" value="+ Exit(): void {virtual}" style="text;strokeColor=none;fillColor=none;align=left;verticalAlign=top;spacingLeft=4;spacingRight=4;overflow=hidden;rotatable=0;points=[[0,0.5],[1,0.5]];portConstraint=eastwest;whiteSpace=wrap;html=1;" vertex="1" parent="ihR8Fmivdvn-rFsdOKCi-21">
          <mxGeometry y="190" width="340" height="26" as="geometry" />
        </mxCell>
        <mxCell id="ihR8Fmivdvn-rFsdOKCi-25" value="" style="line;strokeWidth=1;fillColor=none;align=left;verticalAlign=middle;spacingTop=-1;spacingLeft=3;spacingRight=3;rotatable=0;labelPosition=right;points=[];portConstraint=eastwest;strokeColor=inherit;" parent="ihR8Fmivdvn-rFsdOKCi-21" vertex="1">
          <mxGeometry y="216" width="340" height="8" as="geometry" />
        </mxCell>
        <mxCell id="ihR8Fmivdvn-rFsdOKCi-26" value="Basisklasse für jeden Status" style="text;strokeColor=none;fillColor=none;align=left;verticalAlign=top;spacingLeft=4;spacingRight=4;overflow=hidden;rotatable=0;points=[[0,0.5],[1,0.5]];portConstraint=eastwest;whiteSpace=wrap;html=1;" parent="ihR8Fmivdvn-rFsdOKCi-21" vertex="1">
          <mxGeometry y="224" width="340" height="26" as="geometry" />
        </mxCell>
        <mxCell id="ihR8Fmivdvn-rFsdOKCi-85" style="edgeStyle=orthogonalEdgeStyle;rounded=0;orthogonalLoop=1;jettySize=auto;html=1;exitX=0.5;exitY=1;exitDx=0;exitDy=0;entryX=1;entryY=0.5;entryDx=0;entryDy=0;endArrow=block;endFill=0;endSize=16;" parent="1" source="ihR8Fmivdvn-rFsdOKCi-27" target="ihR8Fmivdvn-rFsdOKCi-56" edge="1">
          <mxGeometry relative="1" as="geometry">
            <mxPoint x="3659.942028985507" y="2310" as="targetPoint" />
            <Array as="points">
              <mxPoint x="3660" y="2440" />
              <mxPoint x="3400" y="2440" />
              <mxPoint x="3400" y="2093" />
            </Array>
          </mxGeometry>
        </mxCell>
        <mxCell id="ihR8Fmivdvn-rFsdOKCi-27" value="IdleState" style="swimlane;fontStyle=1;align=center;verticalAlign=top;childLayout=stackLayout;horizontal=1;startSize=26;horizontalStack=0;resizeParent=1;resizeParentMax=0;resizeLast=0;collapsible=1;marginBottom=0;whiteSpace=wrap;html=1;fillColor=#60a917;fontColor=#ffffff;strokeColor=#2D7600;" parent="1" vertex="1">
          <mxGeometry x="3520" y="2160" width="280" height="120" as="geometry">
            <mxRectangle x="4430" y="1700" width="70" height="30" as="alternateBounds" />
          </mxGeometry>
        </mxCell>
        <mxCell id="ihR8Fmivdvn-rFsdOKCi-28" value="Attribute" style="text;strokeColor=none;fillColor=none;align=left;verticalAlign=top;spacingLeft=4;spacingRight=4;overflow=hidden;rotatable=0;points=[[0,0.5],[1,0.5]];portConstraint=eastwest;whiteSpace=wrap;html=1;" parent="ihR8Fmivdvn-rFsdOKCi-27" vertex="1">
          <mxGeometry y="26" width="280" height="26" as="geometry" />
        </mxCell>
        <mxCell id="ihR8Fmivdvn-rFsdOKCi-29" value="" style="line;strokeWidth=1;fillColor=none;align=left;verticalAlign=middle;spacingTop=-1;spacingLeft=3;spacingRight=3;rotatable=0;labelPosition=right;points=[];portConstraint=eastwest;strokeColor=inherit;" parent="ihR8Fmivdvn-rFsdOKCi-27" vertex="1">
          <mxGeometry y="52" width="280" height="8" as="geometry" />
        </mxCell>
        <mxCell id="ihR8Fmivdvn-rFsdOKCi-30" value="Methoden" style="text;strokeColor=none;fillColor=none;align=left;verticalAlign=top;spacingLeft=4;spacingRight=4;overflow=hidden;rotatable=0;points=[[0,0.5],[1,0.5]];portConstraint=eastwest;whiteSpace=wrap;html=1;" parent="ihR8Fmivdvn-rFsdOKCi-27" vertex="1">
          <mxGeometry y="60" width="280" height="26" as="geometry" />
        </mxCell>
        <mxCell id="ihR8Fmivdvn-rFsdOKCi-31" value="" style="line;strokeWidth=1;fillColor=none;align=left;verticalAlign=middle;spacingTop=-1;spacingLeft=3;spacingRight=3;rotatable=0;labelPosition=right;points=[];portConstraint=eastwest;strokeColor=inherit;" parent="ihR8Fmivdvn-rFsdOKCi-27" vertex="1">
          <mxGeometry y="86" width="280" height="8" as="geometry" />
        </mxCell>
        <mxCell id="ihR8Fmivdvn-rFsdOKCi-32" value="Status, wenn der Spieler still steht" style="text;strokeColor=none;fillColor=none;align=left;verticalAlign=top;spacingLeft=4;spacingRight=4;overflow=hidden;rotatable=0;points=[[0,0.5],[1,0.5]];portConstraint=eastwest;whiteSpace=wrap;html=1;" parent="ihR8Fmivdvn-rFsdOKCi-27" vertex="1">
          <mxGeometry y="94" width="280" height="26" as="geometry" />
        </mxCell>
        <mxCell id="ihR8Fmivdvn-rFsdOKCi-51" value="PlayerState" style="swimlane;fontStyle=1;align=center;verticalAlign=top;childLayout=stackLayout;horizontal=1;startSize=26;horizontalStack=0;resizeParent=1;resizeParentMax=0;resizeLast=0;collapsible=1;marginBottom=0;whiteSpace=wrap;html=1;fillColor=#60a917;fontColor=#ffffff;strokeColor=#2D7600;" parent="1" vertex="1">
          <mxGeometry x="3040" y="1960" width="280" height="146" as="geometry">
            <mxRectangle x="4430" y="1700" width="70" height="30" as="alternateBounds" />
          </mxGeometry>
        </mxCell>
        <mxCell id="ihR8Fmivdvn-rFsdOKCi-52" value="- _player: PlayerCharacter" style="text;strokeColor=none;fillColor=none;align=left;verticalAlign=top;spacingLeft=4;spacingRight=4;overflow=hidden;rotatable=0;points=[[0,0.5],[1,0.5]];portConstraint=eastwest;whiteSpace=wrap;html=1;" parent="ihR8Fmivdvn-rFsdOKCi-51" vertex="1">
          <mxGeometry y="26" width="280" height="26" as="geometry" />
        </mxCell>
        <mxCell id="2RVkLAHY1WiUdaPVSaJh-11" value="+ Player: PlayerCharacter {read-only property}" style="text;strokeColor=none;fillColor=none;align=left;verticalAlign=top;spacingLeft=4;spacingRight=4;overflow=hidden;rotatable=0;points=[[0,0.5],[1,0.5]];portConstraint=eastwest;whiteSpace=wrap;html=1;" vertex="1" parent="ihR8Fmivdvn-rFsdOKCi-51">
          <mxGeometry y="52" width="280" height="26" as="geometry" />
        </mxCell>
        <mxCell id="ihR8Fmivdvn-rFsdOKCi-53" value="" style="line;strokeWidth=1;fillColor=none;align=left;verticalAlign=middle;spacingTop=-1;spacingLeft=3;spacingRight=3;rotatable=0;labelPosition=right;points=[];portConstraint=eastwest;strokeColor=inherit;" parent="ihR8Fmivdvn-rFsdOKCi-51" vertex="1">
          <mxGeometry y="78" width="280" height="8" as="geometry" />
        </mxCell>
        <mxCell id="ihR8Fmivdvn-rFsdOKCi-54" value="+ _Ready(): void" style="text;strokeColor=none;fillColor=none;align=left;verticalAlign=top;spacingLeft=4;spacingRight=4;overflow=hidden;rotatable=0;points=[[0,0.5],[1,0.5]];portConstraint=eastwest;whiteSpace=wrap;html=1;" parent="ihR8Fmivdvn-rFsdOKCi-51" vertex="1">
          <mxGeometry y="86" width="280" height="26" as="geometry" />
        </mxCell>
        <mxCell id="ihR8Fmivdvn-rFsdOKCi-55" value="" style="line;strokeWidth=1;fillColor=none;align=left;verticalAlign=middle;spacingTop=-1;spacingLeft=3;spacingRight=3;rotatable=0;labelPosition=right;points=[];portConstraint=eastwest;strokeColor=inherit;" parent="ihR8Fmivdvn-rFsdOKCi-51" vertex="1">
          <mxGeometry y="112" width="280" height="8" as="geometry" />
        </mxCell>
        <mxCell id="ihR8Fmivdvn-rFsdOKCi-56" value="Basisklasse für jeden Spielerstatus" style="text;strokeColor=none;fillColor=none;align=left;verticalAlign=top;spacingLeft=4;spacingRight=4;overflow=hidden;rotatable=0;points=[[0,0.5],[1,0.5]];portConstraint=eastwest;whiteSpace=wrap;html=1;" parent="ihR8Fmivdvn-rFsdOKCi-51" vertex="1">
          <mxGeometry y="120" width="280" height="26" as="geometry" />
        </mxCell>
        <mxCell id="ihR8Fmivdvn-rFsdOKCi-86" style="edgeStyle=orthogonalEdgeStyle;rounded=0;orthogonalLoop=1;jettySize=auto;html=1;exitX=0.5;exitY=1;exitDx=0;exitDy=0;entryX=1;entryY=0.5;entryDx=0;entryDy=0;endArrow=block;endFill=0;endSize=16;" parent="1" source="ihR8Fmivdvn-rFsdOKCi-65" target="ihR8Fmivdvn-rFsdOKCi-56" edge="1">
          <mxGeometry relative="1" as="geometry">
            <Array as="points">
              <mxPoint x="3980" y="2440" />
              <mxPoint x="3400" y="2440" />
              <mxPoint x="3400" y="2093" />
            </Array>
          </mxGeometry>
        </mxCell>
        <mxCell id="ihR8Fmivdvn-rFsdOKCi-65" value="WalkState" style="swimlane;fontStyle=1;align=center;verticalAlign=top;childLayout=stackLayout;horizontal=1;startSize=26;horizontalStack=0;resizeParent=1;resizeParentMax=0;resizeLast=0;collapsible=1;marginBottom=0;whiteSpace=wrap;html=1;fillColor=#60a917;fontColor=#ffffff;strokeColor=#2D7600;" parent="1" vertex="1">
          <mxGeometry x="3840" y="2160" width="280" height="120" as="geometry">
            <mxRectangle x="4430" y="1700" width="70" height="30" as="alternateBounds" />
          </mxGeometry>
        </mxCell>
        <mxCell id="ihR8Fmivdvn-rFsdOKCi-66" value="Attribute" style="text;strokeColor=none;fillColor=none;align=left;verticalAlign=top;spacingLeft=4;spacingRight=4;overflow=hidden;rotatable=0;points=[[0,0.5],[1,0.5]];portConstraint=eastwest;whiteSpace=wrap;html=1;" parent="ihR8Fmivdvn-rFsdOKCi-65" vertex="1">
          <mxGeometry y="26" width="280" height="26" as="geometry" />
        </mxCell>
        <mxCell id="ihR8Fmivdvn-rFsdOKCi-67" value="" style="line;strokeWidth=1;fillColor=none;align=left;verticalAlign=middle;spacingTop=-1;spacingLeft=3;spacingRight=3;rotatable=0;labelPosition=right;points=[];portConstraint=eastwest;strokeColor=inherit;" parent="ihR8Fmivdvn-rFsdOKCi-65" vertex="1">
          <mxGeometry y="52" width="280" height="8" as="geometry" />
        </mxCell>
        <mxCell id="ihR8Fmivdvn-rFsdOKCi-68" value="Methoden" style="text;strokeColor=none;fillColor=none;align=left;verticalAlign=top;spacingLeft=4;spacingRight=4;overflow=hidden;rotatable=0;points=[[0,0.5],[1,0.5]];portConstraint=eastwest;whiteSpace=wrap;html=1;" parent="ihR8Fmivdvn-rFsdOKCi-65" vertex="1">
          <mxGeometry y="60" width="280" height="26" as="geometry" />
        </mxCell>
        <mxCell id="ihR8Fmivdvn-rFsdOKCi-69" value="" style="line;strokeWidth=1;fillColor=none;align=left;verticalAlign=middle;spacingTop=-1;spacingLeft=3;spacingRight=3;rotatable=0;labelPosition=right;points=[];portConstraint=eastwest;strokeColor=inherit;" parent="ihR8Fmivdvn-rFsdOKCi-65" vertex="1">
          <mxGeometry y="86" width="280" height="8" as="geometry" />
        </mxCell>
        <mxCell id="ihR8Fmivdvn-rFsdOKCi-70" value="Status, wenn der Spieler nach links/rechts läuft" style="text;strokeColor=none;fillColor=none;align=left;verticalAlign=top;spacingLeft=4;spacingRight=4;overflow=hidden;rotatable=0;points=[[0,0.5],[1,0.5]];portConstraint=eastwest;whiteSpace=wrap;html=1;" parent="ihR8Fmivdvn-rFsdOKCi-65" vertex="1">
          <mxGeometry y="94" width="280" height="26" as="geometry" />
        </mxCell>
        <mxCell id="ihR8Fmivdvn-rFsdOKCi-87" style="edgeStyle=orthogonalEdgeStyle;rounded=0;orthogonalLoop=1;jettySize=auto;html=1;exitX=0.5;exitY=1;exitDx=0;exitDy=0;entryX=1;entryY=0.5;entryDx=0;entryDy=0;endArrow=block;endFill=0;endSize=16;" parent="1" source="ihR8Fmivdvn-rFsdOKCi-71" target="ihR8Fmivdvn-rFsdOKCi-56" edge="1">
          <mxGeometry relative="1" as="geometry">
            <mxPoint x="4210" y="2330" as="targetPoint" />
            <Array as="points">
              <mxPoint x="4300" y="2440" />
              <mxPoint x="3400" y="2440" />
              <mxPoint x="3400" y="2093" />
            </Array>
          </mxGeometry>
        </mxCell>
        <mxCell id="ihR8Fmivdvn-rFsdOKCi-71" value="AirState" style="swimlane;fontStyle=1;align=center;verticalAlign=top;childLayout=stackLayout;horizontal=1;startSize=26;horizontalStack=0;resizeParent=1;resizeParentMax=0;resizeLast=0;collapsible=1;marginBottom=0;whiteSpace=wrap;html=1;fillColor=#60a917;fontColor=#ffffff;strokeColor=#2D7600;" parent="1" vertex="1">
          <mxGeometry x="4160" y="2160" width="280" height="120" as="geometry">
            <mxRectangle x="4430" y="1700" width="70" height="30" as="alternateBounds" />
          </mxGeometry>
        </mxCell>
        <mxCell id="ihR8Fmivdvn-rFsdOKCi-72" value="Attribute" style="text;strokeColor=none;fillColor=none;align=left;verticalAlign=top;spacingLeft=4;spacingRight=4;overflow=hidden;rotatable=0;points=[[0,0.5],[1,0.5]];portConstraint=eastwest;whiteSpace=wrap;html=1;" parent="ihR8Fmivdvn-rFsdOKCi-71" vertex="1">
          <mxGeometry y="26" width="280" height="26" as="geometry" />
        </mxCell>
        <mxCell id="ihR8Fmivdvn-rFsdOKCi-73" value="" style="line;strokeWidth=1;fillColor=none;align=left;verticalAlign=middle;spacingTop=-1;spacingLeft=3;spacingRight=3;rotatable=0;labelPosition=right;points=[];portConstraint=eastwest;strokeColor=inherit;" parent="ihR8Fmivdvn-rFsdOKCi-71" vertex="1">
          <mxGeometry y="52" width="280" height="8" as="geometry" />
        </mxCell>
        <mxCell id="ihR8Fmivdvn-rFsdOKCi-74" value="Methoden" style="text;strokeColor=none;fillColor=none;align=left;verticalAlign=top;spacingLeft=4;spacingRight=4;overflow=hidden;rotatable=0;points=[[0,0.5],[1,0.5]];portConstraint=eastwest;whiteSpace=wrap;html=1;" parent="ihR8Fmivdvn-rFsdOKCi-71" vertex="1">
          <mxGeometry y="60" width="280" height="26" as="geometry" />
        </mxCell>
        <mxCell id="ihR8Fmivdvn-rFsdOKCi-75" value="" style="line;strokeWidth=1;fillColor=none;align=left;verticalAlign=middle;spacingTop=-1;spacingLeft=3;spacingRight=3;rotatable=0;labelPosition=right;points=[];portConstraint=eastwest;strokeColor=inherit;" parent="ihR8Fmivdvn-rFsdOKCi-71" vertex="1">
          <mxGeometry y="86" width="280" height="8" as="geometry" />
        </mxCell>
        <mxCell id="ihR8Fmivdvn-rFsdOKCi-76" value="Status, wenn der Spieler in der Luft ist" style="text;strokeColor=none;fillColor=none;align=left;verticalAlign=top;spacingLeft=4;spacingRight=4;overflow=hidden;rotatable=0;points=[[0,0.5],[1,0.5]];portConstraint=eastwest;whiteSpace=wrap;html=1;" parent="ihR8Fmivdvn-rFsdOKCi-71" vertex="1">
          <mxGeometry y="94" width="280" height="26" as="geometry" />
        </mxCell>
        <mxCell id="ihR8Fmivdvn-rFsdOKCi-88" style="edgeStyle=orthogonalEdgeStyle;rounded=0;orthogonalLoop=1;jettySize=auto;html=1;exitX=0.5;exitY=1;exitDx=0;exitDy=0;entryX=1;entryY=0.5;entryDx=0;entryDy=0;endArrow=block;endFill=0;endSize=16;" parent="1" source="ihR8Fmivdvn-rFsdOKCi-77" target="ihR8Fmivdvn-rFsdOKCi-56" edge="1">
          <mxGeometry relative="1" as="geometry">
            <mxPoint x="4590" y="2310" as="targetPoint" />
            <Array as="points">
              <mxPoint x="4620" y="2440" />
              <mxPoint x="3400" y="2440" />
              <mxPoint x="3400" y="2093" />
            </Array>
          </mxGeometry>
        </mxCell>
        <mxCell id="ihR8Fmivdvn-rFsdOKCi-89" value="Extends" style="edgeLabel;html=1;align=center;verticalAlign=middle;resizable=0;points=[];" parent="ihR8Fmivdvn-rFsdOKCi-88" vertex="1" connectable="0">
          <mxGeometry x="0.8863" y="1" relative="1" as="geometry">
            <mxPoint x="-29" y="-41" as="offset" />
          </mxGeometry>
        </mxCell>
        <mxCell id="ihR8Fmivdvn-rFsdOKCi-77" value="InactiveState" style="swimlane;fontStyle=1;align=center;verticalAlign=top;childLayout=stackLayout;horizontal=1;startSize=26;horizontalStack=0;resizeParent=1;resizeParentMax=0;resizeLast=0;collapsible=1;marginBottom=0;whiteSpace=wrap;html=1;fillColor=#60a917;fontColor=#ffffff;strokeColor=#2D7600;" parent="1" vertex="1">
          <mxGeometry x="4480" y="2160" width="280" height="120" as="geometry">
            <mxRectangle x="4430" y="1700" width="70" height="30" as="alternateBounds" />
          </mxGeometry>
        </mxCell>
        <mxCell id="ihR8Fmivdvn-rFsdOKCi-78" value="Attribute" style="text;strokeColor=none;fillColor=none;align=left;verticalAlign=top;spacingLeft=4;spacingRight=4;overflow=hidden;rotatable=0;points=[[0,0.5],[1,0.5]];portConstraint=eastwest;whiteSpace=wrap;html=1;" parent="ihR8Fmivdvn-rFsdOKCi-77" vertex="1">
          <mxGeometry y="26" width="280" height="26" as="geometry" />
        </mxCell>
        <mxCell id="ihR8Fmivdvn-rFsdOKCi-79" value="" style="line;strokeWidth=1;fillColor=none;align=left;verticalAlign=middle;spacingTop=-1;spacingLeft=3;spacingRight=3;rotatable=0;labelPosition=right;points=[];portConstraint=eastwest;strokeColor=inherit;" parent="ihR8Fmivdvn-rFsdOKCi-77" vertex="1">
          <mxGeometry y="52" width="280" height="8" as="geometry" />
        </mxCell>
        <mxCell id="ihR8Fmivdvn-rFsdOKCi-80" value="Methoden" style="text;strokeColor=none;fillColor=none;align=left;verticalAlign=top;spacingLeft=4;spacingRight=4;overflow=hidden;rotatable=0;points=[[0,0.5],[1,0.5]];portConstraint=eastwest;whiteSpace=wrap;html=1;" parent="ihR8Fmivdvn-rFsdOKCi-77" vertex="1">
          <mxGeometry y="60" width="280" height="26" as="geometry" />
        </mxCell>
        <mxCell id="ihR8Fmivdvn-rFsdOKCi-81" value="" style="line;strokeWidth=1;fillColor=none;align=left;verticalAlign=middle;spacingTop=-1;spacingLeft=3;spacingRight=3;rotatable=0;labelPosition=right;points=[];portConstraint=eastwest;strokeColor=inherit;" parent="ihR8Fmivdvn-rFsdOKCi-77" vertex="1">
          <mxGeometry y="86" width="280" height="8" as="geometry" />
        </mxCell>
        <mxCell id="ihR8Fmivdvn-rFsdOKCi-82" value="Status, wenn Charakter nicht aktiv ist" style="text;strokeColor=none;fillColor=none;align=left;verticalAlign=top;spacingLeft=4;spacingRight=4;overflow=hidden;rotatable=0;points=[[0,0.5],[1,0.5]];portConstraint=eastwest;whiteSpace=wrap;html=1;" parent="ihR8Fmivdvn-rFsdOKCi-77" vertex="1">
          <mxGeometry y="94" width="280" height="26" as="geometry" />
        </mxCell>
        <mxCell id="ihR8Fmivdvn-rFsdOKCi-96" value="Use" style="endArrow=open;endSize=12;dashed=1;html=1;rounded=0;exitX=0.499;exitY=1.006;exitDx=0;exitDy=0;exitPerimeter=0;entryX=0.5;entryY=0;entryDx=0;entryDy=0;" parent="1" source="ihR8Fmivdvn-rFsdOKCi-14" target="ihR8Fmivdvn-rFsdOKCi-15" edge="1">
          <mxGeometry width="160" relative="1" as="geometry">
            <mxPoint x="4140" y="1770" as="sourcePoint" />
            <mxPoint x="4190" y="1880" as="targetPoint" />
          </mxGeometry>
        </mxCell>
        <mxCell id="ihR8Fmivdvn-rFsdOKCi-98" style="edgeStyle=orthogonalEdgeStyle;rounded=0;orthogonalLoop=1;jettySize=auto;html=1;exitX=1;exitY=0.5;exitDx=0;exitDy=0;entryX=0;entryY=0.5;entryDx=0;entryDy=0;" parent="1" source="ihR8Fmivdvn-rFsdOKCi-52" target="ihR8Fmivdvn-rFsdOKCi-10" edge="1">
          <mxGeometry relative="1" as="geometry">
            <Array as="points">
              <mxPoint x="3570" y="1999" />
              <mxPoint x="3570" y="1679" />
            </Array>
          </mxGeometry>
        </mxCell>
        <mxCell id="ihR8Fmivdvn-rFsdOKCi-99" value="steuert" style="edgeLabel;html=1;align=center;verticalAlign=middle;resizable=0;points=[];" parent="ihR8Fmivdvn-rFsdOKCi-98" vertex="1" connectable="0">
          <mxGeometry x="0.066" y="-2" relative="1" as="geometry">
            <mxPoint x="-22" as="offset" />
          </mxGeometry>
        </mxCell>
      </root>
    </mxGraphModel>
  </diagram>
</mxfile>
